<?xml version="1.0" encoding="UTF-8"?>
<svg width="752pt" height="752pt" version="1.1" viewBox="0 0 752 752" xmlns="http://www.w3.org/2000/svg">
 <g>
  <path d="m555.39 375.1c-24.293-17.758-40.918-41.344-46.078-49.203-1.8008-8.1914-10.941-13.734-19.227-11.223l0.09375-0.046875c-1.5156 0.42578-37.082 9.6133-59.387-18.613-3.5508-4.5-9.375-6.6758-15.012-5.5898-5.6367 1.0898-10.23 5.2109-11.934 10.703-2.3672 7.8125-17.809 16.055-30.121 16.055-12.266 0-27.75-8.2422-30.121-16.055-1.6562-5.4922-6.25-9.6602-11.934-10.703-5.6836-1.0898-11.461 1.0898-15.012 5.5898-22.07 27.988-57.207 19.227-59.293 18.66-4.6406-1.375-9.6133-0.42578-13.496 2.4609-2.9375 2.1797-4.9258 5.3516-5.7305 8.8086-5.2109 7.957-21.785 31.445-46.031 49.156-22.309 15.914-21.125 51.098 2.4102 65.309 13.355 8.3359 28.035 13.355 43.664 15.156 1.043 24.863 4.5938 52.047 15.484 73.5 15.059 29.645 41.676 44.66 79.184 44.66 15.297 0 30.355-6.8203 40.965-17.711-0.046874-0.046875-0.14062-0.14062 0 0 0.14063-0.14062 0.046876-0.046875 0 0 10.609 10.891 25.668 17.711 40.965 17.711 37.508 0 64.121-15.012 79.184-44.66 10.891-21.453 14.445-48.637 15.484-73.5 15.629-1.7539 30.309-6.8203 43.664-15.156 23.492-14.211 24.676-49.395 2.2773-65.309zm-317.59 49.207c-9.6133-1.5625-18.516-4.9258-26.945-10.184-3.2695-2.0352-3.8828-5.1133-3.9297-6.8203-0.046875-1.375 0.1875-4.832 3.5039-7.2461 10.465-7.625 19.652-16.102 27.371-24.199zm241.05 10.32c0 38.598-3.8359 63.363-12.504 80.414-9.7539 19.18-25.668 27.75-51.621 27.75-14.301 0-25.48-11.555-25.48-26.285v-16.48c14.965-4.9258 25.242-15.438 26.711-16.953 5.8711-6.2031 5.5898-16.008-0.66406-21.832-6.2031-5.8711-16.008-5.5391-21.832 0.66406-1.9414 2.082-11.035 9.8516-19.652 9.8516-8.6211 0-17.711-7.7656-19.652-9.8516-5.8711-6.2031-15.629-6.4883-21.832-0.66406-6.2031 5.8711-6.4883 15.629-0.66406 21.832 1.4219 1.5156 11.699 12.027 26.711 16.953v16.48c0 14.727-11.176 26.285-25.48 26.285-25.953 0-41.863-8.5703-51.621-27.75-8.668-17.051-12.504-41.816-12.504-80.414l0.003906-87.422c3.8828 0.14062 8.1914 0.09375 12.738-0.33203 17.191-1.5156 32.488-7.4336 45.18-17.332 26.664 24.484 67.629 24.484 94.289 0 12.691 9.8984 27.988 15.816 45.18 17.332 4.5938 0.42578 8.8555 0.47266 12.738 0.33203l0.003906 87.422zm61.801-27.277c-0.046874 1.6562-0.66406 4.7812-3.9297 6.8203-8.4297 5.2578-17.332 8.6211-26.945 10.184v-48.496c7.7188 8.0977 16.906 16.574 27.371 24.199 3.3164 2.4648 3.6016 5.9219 3.5039 7.293z"/>
  <path d="m423.27 373.59c10.656 0 19.32 8.668 19.32 19.32-0.99609 25.621-37.602 25.621-38.645 0 0-10.652 8.668-19.32 19.324-19.32z"/>
  <path d="m324.33 373.59c-10.656 0-19.32 8.668-19.32 19.32 0.99609 25.621 37.602 25.621 38.645 0 0-10.652-8.6211-19.32-19.324-19.32z"/>
  <path d="m571.59 309.46c0-20.41-11.27-38.551-28.652-47.738-0.94531-31.684-30.594-56.309-62.086-51.336-3.4102-5.2109-7.7188-9.8516-12.691-13.59-16.242-12.645-40.02-14.445-57.965-4.6406-19.75-18.516-53.184-18.516-72.93 0-17.949-9.7539-41.723-7.957-57.965 4.6406-4.9727 3.7891-9.2812 8.3828-12.691 13.59-31.492-4.9727-61.094 19.652-62.086 51.336-17.332 9.1875-28.652 27.324-28.652 47.738 0 8.5234 6.9141 15.438 15.438 15.438 8.5234 0 15.438-6.9141 15.438-15.438 0-10.703 7.2461-19.984 17.664-22.496 8.0977-1.9883 13.164-10.039 11.461-18.234-4.1211-18.469 15.344-34.004 32.441-25.859 8.2891 4.0273 18.848-0.71094 21.359-9.5664 4.9258-16.812 26.945-22.211 38.977-9.3281 3.3633 3.5508 8.2422 5.2578 13.117 4.6875 4.8789-0.61719 9.1406-3.5039 11.555-7.7656 8.668-15.676 32.156-15.676 40.824 0 2.4141 4.2617 6.6758 7.1523 11.555 7.7656 4.8789 0.61719 9.707-1.1367 13.117-4.6875 12.027-12.883 34.051-7.4844 38.977 9.3281 1.2773 4.3086 4.3555 7.8125 8.4766 9.6602 4.1211 1.8477 8.8086 1.8008 12.883-0.09375 17.098-8.0977 36.559 7.3867 32.441 25.859-1.7539 8.1914 3.3164 16.242 11.461 18.234 10.371 2.5586 17.664 11.793 17.664 22.496 0 8.5234 6.9141 15.438 15.438 15.438 8.5195 0 15.434-6.9141 15.434-15.438z"/>
 </g>
</svg>
