<?xml version="1.0" encoding="UTF-8"?>
<svg width="752pt" height="752pt" version="1.1" viewBox="0 0 752 752" xmlns="http://www.w3.org/2000/svg">
 <g>
  <path d="m378.12 346.49c-1.2461 0.96875-2.9922 0.96875-4.2383 0-13.527-10.582-22.652 7.6602-10.648 13.969 5.8906 3.0977 9.25 5.0234 11.031 6.0938v-0.003907c1.0703 0.63672 2.4023 0.63672 3.4727 0 1.7812-1.0703 5.1445-2.9961 11.031-6.0938 12.02-6.3086 2.8789-24.547-10.648-13.965z"/>
  <path d="m591.31 533.71c1.5898-13.91-2.3828-27.887-11.062-38.875-7.2734-9.418-17.578-16.035-29.168-18.734-1.4141-10.312-5.668-20.031-12.277-28.07-6.6094-8.0391-15.324-14.086-25.168-17.469 1.5-6.9844 1.5664-14.199 0.19922-21.211 10.09-6.6367 17.625-16.504 21.371-27.98 4.7266-13.855 3.7383-29.023-2.7461-42.145 6.9844-6.0352 11.844-14.16 13.852-23.172 18.773-1.3984 36.195-10.281 48.352-24.652 15.648-17.758 19.645-51.676 9.5078-80.656v-0.003906c-8.7734-24.43-27.727-43.84-51.938-53.199-21.461-8.2305-57.719-12.133-108.78 15.465-3.4219-0.09375-6.8477 0.078126-10.242 0.51172-15.332-14.863-35.848-23.172-57.203-23.172-21.352 0-41.867 8.3086-57.203 23.172-3.4102-0.44141-6.8477-0.61328-10.285-0.52344-51.059-27.582-87.281-23.68-108.75-15.445-24.211 9.3594-43.16 28.777-51.93 53.207-10.137 28.965-6.1367 62.898 9.5078 80.656 12.18 14.398 29.645 23.281 48.453 24.648 1.9766 9.0117 6.793 17.148 13.742 23.215-6.4688 13.113-7.4453 28.258-2.7227 42.098 3.7461 11.473 11.273 21.336 21.355 27.973-1.3711 7.0156-1.2891 14.238 0.23828 21.223-9.8555 3.3711-18.578 9.4141-25.203 17.453-6.6211 8.043-10.879 17.762-12.301 28.082-11.582 2.6992-21.879 9.3164-29.148 18.73-8.6758 10.988-12.652 24.965-11.059 38.875-20.691 17.98-21.164 49.852-20.328 63.098 0.44531 6.8125 6.1055 12.109 12.934 12.105h445.37c6.8359 0.015626 12.504-5.2852 12.949-12.105 0.82031-13.246 0.34375-45.117-20.324-63.098zm-43.055-365.8c21.145 8.2305 37.699 25.188 45.422 46.52 9.9727 28.488 3.6523 57.145-7.3555 69.637-11.227 13.727-28.152 21.508-45.879 21.09-18.148-0.66406-35.09-9.2734-46.324-23.547-16.281-20.719-19.785-47.316-8.9727-67.707 9.0938-17.156 26.613-26.145 48-24.656h0.003906c1.9844 0.13281 3.707 1.418 4.3984 3.2812 0.6875 1.6484 0.32422 3.5508-0.92188 4.8359-11.469 11.93-16.207 24.469-13.008 34.41 1.7305 5.375 6.5586 12.289 19.727 14.719v-0.003906c1.4531 0.27734 2.957-0.03125 4.1797-0.86719 1.2188-0.83203 2.0586-2.1211 2.3281-3.5742s-0.054688-2.957-0.89844-4.1719-2.1367-2.043-3.5898-2.3008c-6.25-1.1562-10.012-3.5781-11.176-7.2031-1.8203-5.6602 2.2773-14.801 10.449-23.309h-0.003906c2.0742-2.1484 3.4844-4.8477 4.0664-7.7773 0.57812-2.9297 0.30469-5.9648-0.79688-8.7383-1.0898-2.8906-2.9883-5.4023-5.4688-7.2422-2.4805-1.8359-5.4375-2.918-8.5195-3.1211-17.703-1.8828-35.336 4.1289-48.199 16.434-5.9688-8.4727-14.445-14.852-24.238-18.234 32.57-14.891 62.332-17.848 86.777-8.4727zm-336.72 137.27c-17.723 0.42578-34.648-7.3555-45.859-21.09-11.008-12.512-17.328-41.168-7.3555-69.656 7.7188-21.332 24.277-38.289 45.418-46.52 24.418-9.3555 54.137-6.3555 86.633 8.4727-9.7422 3.4102-18.172 9.7891-24.098 18.246-12.871-12.309-30.508-18.324-48.215-16.449-3.082 0.19922-6.0391 1.2812-8.5156 3.1211-2.4805 1.8359-4.3789 4.3477-5.4688 7.2383-1.1016 2.7734-1.3789 5.8086-0.79688 8.7383 0.57812 2.9297 1.9922 5.6328 4.0664 7.7812 8.168 8.5078 12.27 17.645 10.449 23.309-1.1641 3.625-4.9297 6.0508-11.176 7.2031h-0.003906c-1.4531 0.25781-2.7461 1.0859-3.5898 2.3008-0.84375 1.2148-1.168 2.7188-0.89844 4.1719 0.26953 1.4531 1.1055 2.7422 2.3281 3.5742 1.2227 0.83594 2.7266 1.1484 4.1797 0.86719 13.168-2.4297 17.996-9.3438 19.727-14.719 3.1953-9.9297-1.5469-22.469-13.008-34.41v0.003907c-1.2461-1.2852-1.6094-3.1875-0.92188-4.8359 0.69141-1.8633 2.4141-3.1484 4.3984-3.2773 21.379-1.4805 38.906 7.5039 48 24.656 10.816 20.402 7.293 46.988-8.9727 67.707l0.003906-0.003907c-11.23 14.281-28.172 22.898-46.324 23.566zm15.797 72.68c-4.7422-13.758-2.3867-28.969 6.2891-40.652 1.6523-2.2734 1.3438-5.4258-0.71875-7.3359-2.0625-1.9102-5.2305-1.9766-7.3711-0.15234-3.9141-3.8203-6.7812-8.5859-8.332-13.832 19.469-2.168 37.258-12.039 49.398-27.41 18.965-24.184 22.906-55.496 10.043-79.766-0.91016-1.7148-1.9062-3.3281-2.9609-4.9141 4.7734-9.082 16.891-19.441 35.824-19.695-0.96094 1.2852-1.9102 2.5898-2.8203 3.9414-0.85938 1.2188-1.1953 2.7305-0.92578 4.1992s1.1172 2.7656 2.3555 3.6016c1.2344 0.83594 2.7578 1.1367 4.2188 0.83594 1.4609-0.29688 2.7422-1.1758 3.5508-2.4297 13.156-20.449 35.805-32.812 60.121-32.812 24.316 0 46.969 12.363 60.125 32.812 0.77344 1.3242 2.0586 2.2695 3.5547 2.6094 1.4961 0.34375 3.0664 0.050782 4.3398-0.80859 1.2695-0.85547 2.1289-2.2031 2.375-3.7188 0.24219-1.5117-0.14844-3.0625-1.0898-4.2734-0.91406-1.3594-1.8516-2.6719-2.8359-3.957 18.949 0.23438 31.059 10.645 35.816 19.719-1.0312 1.5742-2.0273 3.1953-2.9375 4.9102-12.863 24.27-8.9258 55.582 10.043 79.766l0.003906-0.003906c12.145 15.379 29.941 25.25 49.414 27.41-1.5469 5.25-4.4102 10.02-8.3242 13.848-2.1328-1.8555-5.3203-1.8125-7.4023 0.10156-2.0781 1.9141-2.3867 5.0898-0.71484 7.3672 8.6758 11.684 11.031 26.895 6.2891 40.652-3.8633 12.527-13.566 22.402-26.023 26.488-2.6445 0.78125-4.3086 3.3906-3.9141 6.1172 0.39844 2.7305 2.7383 4.7539 5.4961 4.75 0.53906 0 1.0742-0.078125 1.5938-0.23047 0.54297-0.16406 1.0547-0.41016 1.5898-0.59375 1.5742 9.6914-1.0586 19.598-7.2383 27.227-7.8203 8.6328-18.977 13.484-30.625 13.32 0.023437-0.65625 0.12109-1.3164 0.11328-1.9688-0.023438-3.0469-2.5039-5.5039-5.5508-5.5039h-0.039063c-1.4727 0.007812-2.8789 0.60547-3.9141 1.6523-1.0312 1.0508-1.6055 2.4648-1.5938 3.9375-0.49219 13.613-7.0938 26.277-17.969 34.48-10.914 8.1367-25.148 10.352-38.02 5.918-14.715-4.3945-30.395-4.3945-45.109 0-12.883 4.4375-27.125 2.2109-38.039-5.9492-10.875-8.1992-17.477-20.867-17.965-34.48 0.011719-1.4688-0.5625-2.8867-1.5977-3.9336-1.0312-1.0508-2.4375-1.6445-3.9102-1.6562h-0.042969c-3.0469 0-5.5234 2.457-5.5469 5.5078 0 0.65234 0.09375 1.3086 0.11328 1.9648v-0.003906c-11.645 0.17188-22.801-4.6719-30.629-13.301-6.1758-7.6289-8.8008-17.531-7.2188-27.219 0.53125 0.17969 1.0352 0.42188 1.5742 0.58594 0.51562 0.15234 1.0508 0.23047 1.5898 0.23047 2.7578 0.003906 5.1016-2.0195 5.4961-4.7461 0.39844-2.7305-1.2695-5.3359-3.9102-6.1211-12.465-4.082-22.172-13.957-26.039-26.484zm373.2 218.26c-0.078124 0.96484-0.88281 1.707-1.8516 1.707h-445.37c-0.96875 0-1.7773-0.74219-1.8516-1.707-0.66406-10.469-0.44922-34.152 12.172-49.484 0.39453 1.1094 0.82031 2.2383 1.2891 3.3477 1.207 2.793 4.4453 4.0938 7.25 2.9102 2.8047-1.1836 4.1328-4.4102 2.9766-7.2266-3.2422-7.1055-4.457-14.969-3.5195-22.723s3.9961-15.102 8.8398-21.23c4.0234-5.457 9.4297-9.7422 15.664-12.41 6.2344-2.6641 13.07-3.6172 19.793-2.7578 3.0273 0.49609 5.8789-1.5547 6.375-4.582 0.49609-3.0234-1.5547-5.8789-4.5781-6.375-1.75-0.27734-3.5156-0.44531-5.2852-0.50781 1.457-7.8281 4.9883-15.121 10.227-21.117 5.2383-5.9961 11.992-10.477 19.555-12.973 1.4102 2.7695 3.1211 5.375 5.1016 7.7695 10.301 11.527 25.203 17.867 40.648 17.297h0.19531c3.3789 12.082 10.598 22.73 20.57 30.34 13.762 10.195 31.617 13.074 47.883 7.7148 12.645-3.7773 26.117-3.7773 38.762 0 5.5078 1.668 11.23 2.5312 16.988 2.5547 11.145 0.058594 22-3.5508 30.895-10.27 9.9688-7.6094 17.191-18.258 20.57-30.34h0.19141c15.453 0.56641 30.352-5.7773 40.652-17.309 1.9805-2.3828 3.6953-4.9766 5.1094-7.7344 7.5508 2.4922 14.293 6.9648 19.523 12.953 5.2344 5.9883 8.7617 13.27 10.223 21.086-1.7617 0.058594-3.5156 0.23047-5.2578 0.50781-3.0234 0.49219-5.0742 3.3477-4.582 6.375 0.49609 3.0234 3.3516 5.0742 6.375 4.5781 6.7266-0.85937 13.562 0.09375 19.793 2.7617 6.2344 2.668 11.645 6.9492 15.668 12.41 4.8398 6.1289 7.8984 13.473 8.8398 21.227 0.9375 7.7539-0.28125 15.617-3.5195 22.727-0.58984 1.3594-0.60937 2.8945-0.058593 4.2695 0.55469 1.375 1.6289 2.4727 2.9961 3.0469 1.3633 0.57422 2.9023 0.58203 4.2695 0.019531 1.3711-0.56641 2.457-1.6523 3.0195-3.0234 0.48438-1.1523 0.92578-2.3047 1.332-3.4648 12.656 15.363 12.793 39.152 12.129 49.629z"/>
  <path d="m477.43 305.48c-9.9297-3.082-18.184-10.07-22.863-19.355-5.4023-9.3789-6.4414-20.648-2.8438-30.855 1.0586-2.8789-0.41797-6.0703-3.2969-7.1289-2.8789-1.0547-6.0664 0.41797-7.125 3.2969-17.422 1.8242-34.691-4.6016-46.684-17.371-4.9414-4.9297-11.633-7.6992-18.613-7.6992-6.9766 0-13.672 2.7695-18.609 7.6992-11.992 12.77-29.262 19.195-46.684 17.371-1.0586-2.8789-4.25-4.3516-7.125-3.2969-2.8789 1.0586-4.3555 4.25-3.2969 7.1289 3.5977 10.207 2.5586 21.477-2.8477 30.855-4.6758 9.2852-12.93 16.273-22.859 19.355-2.7656 0.61328-4.6211 3.2109-4.3086 6.0273 0.3125 2.8125 2.6953 4.9414 5.5234 4.9375 0.34375-0.007812 0.67969-0.042968 1.0156-0.11328 6.1836 13.707 11.414 27.824 15.66 42.25 8.9531 27.426 14.867 44.543 21.48 50.98 4.9414 4.8086 24.293 22.707 28.695 27.008h0.003907c8.8906 8.7617 20.871 13.672 33.352 13.672 12.484 0 24.465-4.9102 33.355-13.672 4.4023-4.293 23.754-22.18 28.695-27.008 6.6172-6.4375 12.527-23.555 21.48-50.98 4.2461-14.426 9.4805-28.543 15.664-42.25 0.33203 0.070313 0.67188 0.10547 1.0117 0.11328 2.832 0.003907 5.2148-2.125 5.5273-4.9375 0.3125-2.8164-1.5469-5.4141-4.3086-6.0273zm-28.441 49.656c-6.0352 18.477-13.547 41.477-18.676 46.469-4.8438 4.7188-24.191 22.609-28.699 27.008v0.003907c-6.8281 6.7266-16.023 10.496-25.609 10.496-9.582 0-18.781-3.7695-25.605-10.496-4.5117-4.3906-23.855-22.285-28.703-27.008-5.1289-4.9961-12.641-27.992-18.672-46.469v-0.003906c-4.3359-14.637-9.6328-28.977-15.855-42.918 8.4531-4.9609 15.379-12.152 20.02-20.789 4.8633-8.7148 6.9805-18.695 6.0664-28.637 19.539 0.90625 38.512-6.7148 51.992-20.887 2.8555-2.8438 6.7227-4.4414 10.754-4.4414s7.8984 1.5977 10.758 4.4414c12.652 13.254 30.125 20.824 48.445 20.996 1.1836 0 2.3789-0.085938 3.5703-0.15234-0.92578 9.9492 1.1797 19.949 6.0508 28.68 4.6367 8.6406 11.566 15.836 20.023 20.797-6.2266 13.938-11.523 28.273-15.859 42.91z"/>
  <path d="m343.78 321.79c0 7.0742-5.7383 12.809-12.812 12.809s-12.809-5.7344-12.809-12.809 5.7344-12.812 12.809-12.812 12.812 5.7383 12.812 12.812"/>
  <path d="m338.14 325.9c-2.1641 0-4.1328-1.2578-5.043-3.2227-1.9961-4.3086-7.7383-4.8086-14.473-4.9805-1.7578 0-3.5117-0.12109-5.25-0.37109-3.0195-0.53125-5.0352-3.4102-4.5039-6.4258 0.53125-3.0195 3.4062-5.0391 6.4258-4.5078 1.2031 0.13281 2.4062 0.19922 3.6172 0.20312 6.7148 0.17578 19.215 0.49609 24.262 11.418l-0.003906-0.003906c0.79688 1.7188 0.66016 3.7227-0.35938 5.3203-1.0156 1.5938-2.7773 2.5625-4.6719 2.5625z"/>
  <path d="m433.84 321.79c0 7.0742-5.7344 12.809-12.809 12.809s-12.809-5.7344-12.809-12.809 5.7344-12.812 12.809-12.812 12.809 5.7383 12.809 12.812"/>
  <path d="m413.86 325.9c-1.8945-0.003906-3.6562-0.96875-4.6758-2.5625-1.0156-1.5977-1.1523-3.6016-0.35547-5.3203 5.0469-10.922 17.543-11.242 24.262-11.418h-0.003906c1.207 0 2.4141-0.066406 3.6133-0.19922 3.0195-0.53125 5.8984 1.4883 6.4297 4.5039 0.53125 3.0195-1.4844 5.8984-4.5039 6.4297-1.7383 0.24609-3.4922 0.37109-5.25 0.37109-6.7383 0.17578-12.48 0.66797-14.473 4.9805-0.91016 1.9609-2.8789 3.2188-5.043 3.2148z"/>
  <path d="m362.71 397.65c-1.3398 0.007812-2.6719-0.18359-3.9531-0.56641-3.2422-0.99219-5.9453-3.2617-7.4805-6.2852-1.4453-2.7031-0.42188-6.0664 2.2812-7.5117 2.7031-1.4414 6.0664-0.42187 7.5117 2.2852 0.40234 0.76172 0.71875 0.85547 0.88672 0.90625 2.4102 0.12109 4.793-0.55469 6.7773-1.9258 4.5352-2.457 10.004-2.457 14.543 0 1.9844 1.3711 4.3672 2.0469 6.7773 1.9258 0.17188-0.050781 0.48438-0.14453 0.88672-0.90625 1.4453-2.707 4.8047-3.7266 7.5117-2.2852 2.7031 1.4453 3.7266 4.8086 2.2812 7.5117-1.5352 3.0234-4.2383 5.293-7.4805 6.2891-5.2539 1.1523-10.75 0.14844-15.254-2.7852-1.2461-0.67188-2.7461-0.67188-3.9883 0-3.4336 2.0312-7.3164 3.1797-11.301 3.3477z"/>
  <path d="m376 393.8c-3.0625 0-5.5469-2.4844-5.5469-5.5508v-26.348c0-3.0664 2.4844-5.5508 5.5469-5.5508 3.0664 0 5.5508 2.4844 5.5508 5.5508v26.348c0 3.0664-2.4844 5.5508-5.5508 5.5508z"/>
 </g>
</svg>
