<?xml version="1.0" encoding="UTF-8"?>
<svg width="752pt" height="752pt" version="1.1" viewBox="0 0 752 752" xmlns="http://www.w3.org/2000/svg">
 <g>
  <path d="m415.38 331.11c0 7.8516-5.3633 14.219-11.98 14.219-6.6172 0-11.98-6.3672-11.98-14.219s5.3633-14.215 11.98-14.215c6.6172 0 11.98 6.3633 11.98 14.215"/>
  <path d="m347.81 316.9c-6.625 0-11.992 6.3633-11.992 14.223 0 7.8477 5.3672 14.211 11.992 14.211 6.6055 0 11.988-6.3633 11.988-14.211 0-7.8633-5.3828-14.223-11.988-14.223z"/>
  <path d="m502.84 280.6s0.53125-5.3281 0.53125-5.3516c6.2656-29.605-25.57-43.938-42.82-28.188 2.1406-3.6094-2.5156-25.816-3.5977-28.137-4.8828-10.375-12.578-15.352-23-17.574-9.6094-2.0352-21.414-0.98047-29.121 5.5039-5.125-11.75-16.477-19.922-29.656-19.922-12.996 0-24.199 7.9336-29.422 19.41-7.707-6.0234-19.148-6.9766-28.492-4.9922-10.418 2.2227-18.125 7.1992-23 17.574-1.0859 2.3203-5.7383 24.527-3.5977 28.137-17.258-15.75-49.098-1.4141-42.82 28.188 0 0.019531 0.51562 5.3516 0.51562 5.3516-30.781 1.6016-109.69 69.789-78.844 108.35 18.492 23.117 56.551 9.1875 77.129-20.203-8.1211 11.598-0.54297 55.34 1.6797 68.578 4.2188 25.191 13.742 48.352 28.215 68.699 30.133 42.375 71.062 65.676 121.38 56.121 80.617-15.305 117.65-114.69 106.64-193.39 20.566 29.391 58.648 43.32 77.129 20.203 30.852-38.566-48.07-106.75-78.852-108.36zm-171.66 101.11c-22.27 0-40.324-21.395-40.324-47.797s18.059-47.805 40.324-47.805c22.27 0 40.324 21.402 40.324 47.805s-18.059 47.797-40.324 47.797zm88.844 0c-22.273 0-40.32-21.395-40.32-47.797s18.047-47.805 40.32-47.805c22.27 0 40.332 21.402 40.332 47.805-0.003906 26.402-18.066 47.797-40.332 47.797z"/>
 </g>
</svg>
