<?xml version="1.0" encoding="UTF-8"?>
<svg width="752pt" height="752pt" version="1.1" viewBox="0 0 752 752" xmlns="http://www.w3.org/2000/svg">
 <g>
  <path d="m549.43 391.91s-2.0352-43.75-40.051-60.309c9.9883-7.9531 16.371-20.164 16.371-33.855 0-23.863-19.426-43.289-43.379-43.289-4.8086 0-9.5273 0.73828-13.969 2.3125-5.5508-17.574-21.922-30.152-41.254-30.152-3.2383 0-6.3828 0.37109-9.5273 1.0156-8.2305-15.168-24.141-24.973-41.715-24.973-17.574 0-33.574 9.8047-41.715 24.973-3.1445-0.64844-6.2891-1.0156-9.5273-1.0156-18.961 0-35.242 12.301-40.977 29.598-4.5312-1.5742-9.3438-2.4062-14.246-2.4062-23.863 0-43.379 19.426-43.379 43.289 0 13.969 6.6602 26.363 17.02 34.316-38.57 16.371-40.699 60.492-40.699 60.492 33.762 0 52.723-11.008 63.359-22.105-0.18359 2.1289-0.27734 4.2539-0.27734 6.2891 0 44.492 37.922 173.25 110.35 173.25 72.426 0 110.35-128.75 110.35-173.25 0-2.1289-0.09375-4.1641-0.27734-6.2891 10.824 11.102 29.785 22.109 63.547 22.109zm-279.89-122.37c5.5508 0 10.914 1.6641 15.445 4.7188l11.469 7.7695 0.83203-13.875c0.83203-14.523 12.855-25.898 27.379-25.898 3.6992 0 7.3086 0.73828 10.73 2.2188l7.7695 3.2383 2.7734-7.9531c4.4414-12.855 16.465-21.461 29.969-21.461s25.527 8.6016 29.969 21.461l2.7734 7.9531 7.7695-3.3281c3.4219-1.4805 7.0312-2.2188 10.73-2.2188 14.801 0 26.824 11.562 27.473 26.453l0.55469 14.152 11.746-7.9531c4.5312-3.0508 9.8984-4.7188 15.445-4.7188 15.168 0 27.562 12.395 27.562 27.562 0 15.168-12.395 27.562-27.562 27.562-4.9023 0-9.7109-1.3867-13.875-3.8867l-11.285-7.4922-1.7578-1.2031-0.83203 13.875c-0.83203 14.523-12.855 25.898-27.379 25.898-4.3477 0-8.7891-1.1094-12.949-3.4219l-6.8438-3.6992-3.793 6.7539c-5.6406 10.082-16.281 16.371-27.656 16.371-11.379 0-22.016-6.2891-27.656-16.371l-3.7891-6.5703-6.8438 3.6992c-4.2539 2.2188-8.6016 3.4219-12.949 3.4219-14.801 0-26.824-11.562-27.473-26.453v-14.523l-0.55469 0.37109-2.5898 1.7578-9.4336 6.3828c-4.5312 2.9609-9.7109 4.5312-15.168 4.5312-15.168 0-27.562-12.395-27.562-27.562-0.003906-15.168 12.391-27.562 27.562-27.562zm106.46 264.17c-56.887 0-94.625-112.11-94.625-157.52 0-9.7109 2.0352-19.793 5.918-29.414 0.46094 0.73828 1.0156 1.4805 1.4805 2.2188 0.37109 0.55469 0.73828 1.2031 1.2031 1.7578 1.0156 1.3867 2.1289 2.7734 3.3281 3.9766 0.18359 0.27734 0.37109 0.46094 0.64844 0.73828 1.4805 1.4805 3.0508 2.7734 4.625 4.0703 0.46094 0.37109 1.0156 0.64844 1.4805 1.0156 1.2031 0.83203 2.4961 1.6641 3.793 2.4062 0.64844 0.37109 1.2969 0.64844 2.0352 1.0156 1.2031 0.55469 2.4961 1.1094 3.793 1.5742 0.73828 0.27734 1.4805 0.55469 2.2188 0.73828 1.3867 0.46094 2.7734 0.73828 4.2539 1.0156 0.64844 0.09375 1.2969 0.27734 2.0352 0.37109 2.1289 0.37109 4.3477 0.55469 6.5664 0.55469 4.7188 0 9.3438-0.83203 13.781-2.4062 8.9727 11.562 22.754 18.406 37.461 18.406 14.707 0 28.488-6.9375 37.461-18.406 4.5312 1.5742 9.1562 2.4062 13.781 2.4062 2.2188 0 4.3477-0.18359 6.4766-0.55469 0.64844-0.09375 1.2969-0.27734 2.0352-0.37109 1.3867-0.27734 2.7734-0.64844 4.1641-1.0156 0.73828-0.27734 1.4805-0.46094 2.2188-0.73828 1.2969-0.46094 2.4961-1.0156 3.6992-1.5742 0.73828-0.37109 1.3867-0.64844 2.0352-1.0156 1.2031-0.64844 2.4062-1.3867 3.5156-2.2188 0.55469-0.37109 1.1094-0.73828 1.6641-1.2031 1.4805-1.1094 2.8672-2.3125 4.1641-3.6055 0.18359-0.18359 0.37109-0.27734 0.46094-0.46094 1.4805-1.4805 2.7734-3.0508 3.9766-4.625 0.37109-0.46094 0.73828-1.0156 1.0156-1.5742 0.55469-0.83203 1.2031-1.7578 1.7578-2.5898 3.8867 9.6211 6.0117 19.793 6.0117 29.414 0.19141 45.508-37.547 157.61-94.434 157.61z"/>
  <path d="m344.46 415.59c0 8.6836-7.0391 15.723-15.727 15.723-8.6836 0-15.723-7.0391-15.723-15.723s7.0391-15.723 15.723-15.723c8.6875 0 15.727 7.0391 15.727 15.723"/>
  <path d="m438.99 415.59c0 8.6836-7.0391 15.723-15.727 15.723-8.6836 0-15.723-7.0391-15.723-15.723s7.0391-15.723 15.723-15.723c8.6875 0 15.727 7.0391 15.727 15.723"/>
  <path d="m376 470.72c-13.043 0-23.68 7.0312-23.68 15.723 0 8.6953 10.543 23.586 23.68 23.586 13.133 0 23.68-14.891 23.68-23.586 0-8.6953-10.637-15.723-23.68-15.723z"/>
 </g>
</svg>
