<?xml version="1.0" encoding="UTF-8"?>
<svg width="752pt" height="752pt" version="1.1" viewBox="0 0 752 752" xmlns="http://www.w3.org/2000/svg">
 <g>
  <path d="m530.33 362.03c-6.8477 4.4414-14.551 7.4062-22.613 8.7031 2.918 8.8711 5.332 17.906 7.2227 27.051 1.9375 9.3164 3.2617 18.75 3.9688 28.238 14.086 8.1562 29.914 12.844 46.172 13.676h0.35547c1.6133-0.007813 3.1523-0.67188 4.2617-1.8359 1.1953-1.2266 1.8008-2.9102 1.6602-4.6172-1.8398-28.832-17.008-55.16-41.027-71.215z"/>
  <path d="m180.65 433.25c-0.14063 1.707 0.46484 3.3906 1.6602 4.6172 1.1094 1.1641 2.6484 1.8281 4.2617 1.8359h0.35547c16.258-0.83203 32.086-5.5195 46.172-13.676 0.70703-9.4883 2.0312-18.922 3.9688-28.238 1.8984-9.1445 4.3086-18.176 7.2188-27.051-8.0586-1.2969-15.762-4.2617-22.613-8.7031-24.016 16.055-39.184 42.383-41.023 71.215z"/>
  <path d="m495.4 371.21h-0.82812c-7.8242-0.5-15.453-2.6602-22.375-6.3359l-1.4805-0.71094c-6.5273-3.6719-12.262-8.5977-16.871-14.5h-1.3047c-10.77-0.027344-21.211-3.7227-29.598-10.48-12.742 11.648-29.383 18.105-46.648 18.105s-33.902-6.457-46.648-18.105c-8.3867 6.7578-18.828 10.453-29.598 10.48h-1.3008c-4.7812 5.9648-10.723 10.898-17.465 14.5-0.53906 0.37109-1.1133 0.69141-1.7148 0.94922-6.9258 3.6758-14.555 5.8359-22.379 6.332h-0.53125c-3.1914 9.4688-5.8203 19.113-7.875 28.891-2.6016 12.125-3.9922 24.48-4.1445 36.879 0 46.973 25.062 90.379 65.738 113.86 40.68 23.488 90.801 23.488 131.48 0 40.68-23.484 65.738-66.891 65.738-113.86-0.15234-12.398-1.5391-24.754-4.1445-36.879-2.1094-9.8594-4.8008-19.582-8.0508-29.125zm-158.95 60.145c0 3.2695-2.6484 5.918-5.918 5.918-3.2695 0-5.9219-2.6484-5.9219-5.918v-25.457c0-3.2695 2.6523-5.918 5.9219-5.918 3.2695 0 5.918 2.6484 5.918 5.918zm22.555 79.266c-1.1172 1.1094-2.6289 1.7266-4.2031 1.7148-1.5547-0.003906-3.043-0.62109-4.1445-1.7148-1.1289-1.1094-1.7695-2.6211-1.7734-4.2031 0.019531-1.5625 0.66016-3.0508 1.7734-4.1445 2.3086-2.293 6.0391-2.293 8.3477 0 1.0938 1.1016 1.7109 2.5898 1.7148 4.1445 0.011719 1.5742-0.60547 3.0859-1.7148 4.2031zm42.328 0c-2.3125 2.293-6.0391 2.293-8.3477 0-1.1211-1.1133-1.7539-2.625-1.7539-4.2031 0-1.5781 0.63281-3.0898 1.7539-4.2031l0.76953-0.71094c0.31641-0.21094 0.65234-0.39062 1.0039-0.53125 0.35938-0.17188 0.73438-0.29297 1.125-0.35547 2.5625-0.51172 5.1523 0.71875 6.3789 3.0234 1.2305 2.3047 0.80078 5.1406-1.0508 6.9805zm26.047-79.266c0 3.2695-2.6523 5.918-5.9219 5.918-3.2695 0-5.918-2.6484-5.918-5.918v-25.457c0-3.2695 2.6484-5.918 5.918-5.918 3.2695 0 5.9219 2.6484 5.9219 5.918z"/>
  <path d="m253.05 359.48c0.92578 0.070313 1.8555 0.070313 2.7852 0 6.418-0.3125 12.688-2.0508 18.348-5.0898 0.25-0.082031 0.47656-0.22266 0.65234-0.41406 7.4297-3.8672 13.594-9.7852 17.762-17.051 2.3359 0.48437 4.7148 0.72266 7.1016 0.71094 12.102-0.054687 23.379-6.1367 30.074-16.219 10.738 14.977 28.039 23.859 46.469 23.859 18.43 0 35.73-8.8828 46.469-23.859 6.6953 10.082 17.973 16.164 30.074 16.219 2.3867 0.011719 4.7656-0.22656 7.1016-0.71094 4.1836 7.2539 10.344 13.168 17.762 17.051 0.17578 0.19141 0.40234 0.33203 0.64844 0.41406 5.4805 2.9609 11.543 4.6797 17.762 5.0312h0.71094c0.78906 0.058594 1.5781 0.058594 2.3672 0 16.242 0 31.25-8.6641 39.371-22.73 8.1211-14.066 8.1211-31.398 0-45.465-8.1211-14.066-23.129-22.73-39.371-22.73h-4.3203c1.1875-4.0586 1.7852-8.2656 1.7734-12.492 0-12.09-4.8008-23.684-13.352-32.23-8.5469-8.5508-20.141-13.352-32.23-13.352-7.3438-0.003906-14.578 1.7852-21.074 5.2109-6.9961-13.012-18.473-23.039-32.301-28.23s-29.07-5.1914-42.898 0-25.305 15.219-32.305 28.23c-6.4961-3.4258-13.73-5.2148-21.074-5.2109-12.086 0-23.68 4.8008-32.23 13.352-8.5469 8.5469-13.352 20.141-13.352 32.23-0.011719 4.2266 0.58594 8.4336 1.7773 12.492h-4.3203c-16.242 0-31.254 8.6641-39.375 22.73-8.1211 14.066-8.1211 31.398 0 45.465 8.1211 14.066 23.133 22.73 39.375 22.73z"/>
 </g>
</svg>
