<?xml version="1.0" encoding="UTF-8"?>
<svg width="752pt" height="752pt" version="1.1" viewBox="0 0 752 752" xmlns="http://www.w3.org/2000/svg">
 <defs>
  <clipPath id="a">
   <path d="m139.21 167h473.58v418h-473.58z"/>
  </clipPath>
 </defs>
 <g clip-path="url(#a)">
  <path d="m580.78 390.59c-13.543-12.027-28.227-20.27-41.105-23.965 24.246-12.406 40.918-37.414 40.918-66.301 0-39.781-31.539-72.363-71.227-74.445-13.449-29.742-43.285-49.156-76.625-49.156-7.7656 0-15.344 1.043-22.73 3.125-9.5664-7.8633-21.5-12.219-34.004-12.219s-24.438 4.3555-33.91 12.219c-7.3867-2.082-15.059-3.125-22.73-3.125-33.434 0-63.27 19.418-76.625 49.156-39.59 2.082-71.227 34.668-71.227 74.445 0 28.887 16.672 53.895 40.918 66.301-12.98 3.6992-27.66 11.938-41.109 23.965-27.562 24.625-39.688 55.598-27.184 69.332 12.504 13.734 44.895 4.9258 72.363-19.605 5.7773-5.1133 10.797-10.512 15.156-16.008v17.145c0 78.613 64.977 142.93 144.35 142.93s144.35-64.312 144.35-142.93l-0.003906-17.141c4.3555 5.4922 9.375 10.891 15.156 16.008 27.469 24.531 59.859 33.34 72.363 19.605 12.504-13.734 0.37891-44.707-27.09-69.336zm-235.84 60.809c1.5156-3.8828 2.3672-8.1445 2.3672-12.598 0-16.574-11.082-29.93-24.723-29.93s-24.723 13.449-24.723 29.93c0 4.5469 0.85156 8.8086 2.3672 12.598-7.7656-7.7656-12.785-19.605-12.785-32.867 0-23.488 15.723-42.621 35.141-42.621s35.141 19.039 35.141 42.621c-0.09375 13.262-5.0156 25.102-12.785 32.867zm106.93 0c1.5156-3.8828 2.3672-8.1445 2.3672-12.598 0-16.574-11.082-29.93-24.723-29.93s-24.723 13.449-24.723 29.93c0 4.5469 0.85156 8.8086 2.3672 12.598-7.7656-7.7656-12.785-19.605-12.785-32.867 0-23.488 15.723-42.621 35.141-42.621s35.141 19.039 35.141 42.621c-0.089844 13.262-5.0156 25.102-12.785 32.867zm53.328-99.168c-19.418 0-37.129-10.609-46.316-27.562-1.9883-3.7891-5.9688-6.0625-10.133-6.0625-0.85156 0-1.7031 0.09375-2.5586 0.28516-4.5469 1.043-9.0938 1.5156-13.641 1.5156-18.66 0-36.086-8.3359-47.738-22.73-2.1797-2.6523-5.4922-4.2617-8.9023-4.2617-3.5039 0-6.8203 1.6094-8.9023 4.2617-11.648 14.492-29.078 22.73-47.738 22.73-4.5469 0-9.0938-0.47266-13.641-1.5156-5.0195-1.1367-10.23 1.2305-12.691 5.7773-9.0938 16.953-26.898 27.562-46.316 27.562-28.887 0-52.379-23.301-52.379-51.906 0-28.605 23.488-51.906 52.379-51.906 0.94531 0 1.8945 0 3.0312 0.09375 5.2109 0.28516 9.9453-2.8398 11.555-7.7656 8.3359-24.723 31.637-41.391 57.965-41.391 7.4844 0 14.777 1.3242 21.691 3.9766 4.4531 1.7031 9.4727 0.47266 12.691-3.125 5.7773-6.25 13.922-9.8516 22.449-9.8516 8.5234 0 16.672 3.5977 22.352 10.039 3.125 3.5039 8.2422 4.7344 12.691 3.125 6.9141-2.6523 14.207-3.9766 21.691-3.9766 26.332 0 49.633 16.672 57.965 41.391 1.6094 4.832 6.3477 8.0508 11.555 7.7656 1.1367-0.09375 2.082-0.09375 3.0312-0.09375 28.887 0 52.379 23.301 52.379 51.906 0.003907 28.609-23.582 51.719-52.469 51.719z"/>
 </g>
</svg>
