<?xml version="1.0" encoding="UTF-8"?>
<svg width="752pt" height="752pt" version="1.1" viewBox="0 0 752 752" xmlns="http://www.w3.org/2000/svg">
 <g>
  <path d="m576.05 350.86v-0.007813-0.070312-0.003906c-0.003906-0.33984-0.007813-0.68359-0.042969-1.0312 0 0 0.003906 0 0.003906-0.007813-0.027343-0.35547-0.070312-0.73047-0.11328-1.0938v-0.003906c-0.074219-0.53125-0.17578-1.0703-0.29297-1.6133-0.003906-0.023438-0.023437-0.042969-0.03125-0.070313-0.003906-0.027343 0.007813-0.058593 0-0.082031-0.003906-0.019531-0.015624-0.042969-0.015624-0.066406-0.042969-0.1875-0.085938-0.38281-0.12891-0.57812-0.17578-0.66797-0.40625-1.3438-0.64844-2.0352-0.027344-0.050781-0.039063-0.097656-0.058594-0.15234v-0.003907c-0.089844-0.23828-0.17969-0.46875-0.28125-0.70703v-0.007812h-0.007812c-0.32031-0.82422-0.69141-1.6562-1.1289-2.5156-0.003906-0.003906 0-0.003906-0.003906-0.003906-9.5859-18.641-39.676-32.52-64.277-41.121 0.0625-7.4023-1.6289-41.93-37.625-48.016 1.25-7.707 1.5234-25.082-18.617-33.879-4.1953-1.832-8.4219-2.7617-12.574-2.7617-12.484 0-21.516 8.168-26.367 13.984-4.0781-10.301-13.316-22.969-29.832-21.898-15.324 1.0039-23.312 11.766-26.746 20.988-4.9297-6.3789-14.289-14.879-29.117-14.879-2.2812 0-4.6406 0.20703-7.0195 0.625-22.652 3.9453-30.445 22.754-32.684 30.262-2.1562-0.23047-5.3242-0.47266-9.0781-0.47266-12.461 0-29.387 2.6133-39.266 15.094-7.6328 9.6367-9.5625 23.422-5.7617 40.961-24.664 8.625-54.703 22.492-64.285 41.117-0.44922 0.87109-0.81641 1.7148-1.1523 2.5508v0.007813c-0.089843 0.21875-0.17578 0.4375-0.25 0.66016-0.29297 0.79688-0.55078 1.5859-0.75 2.3594v0.003906c-0.03125 0.13281-0.0625 0.26562-0.10938 0.52734v0.003906c-0.13672 0.60547-0.24219 1.1992-0.31641 1.7852v0.003907 0.003906 0.023437h-0.003906c-0.015625 0.11328-0.019532 0.22656-0.039063 0.33594-0.019531 0.20703-0.046875 0.41016-0.066406 0.61719-0.039063 0.46094-0.042969 0.90625-0.042969 1.3516v0.007812 0.003907 0.003906c0 0.59375 0.027344 1.1797 0.09375 1.7539v0.007812c0.027344 0.26563 0.0625 0.53125 0.097656 0.78906v0.003906c0.070313 0.42969 0.14844 0.85547 0.24609 1.2695v0.003907 0.003906 0.019531c0 0.007813 0.007813 0.019532 0.015625 0.027344v0.023438c0 0.015624 0.007813 0.03125 0.019531 0.050781v0.015625c0 0.007812 0.007813 0.019531 0.007813 0.027344 3.3164 13.148 23.168 19.875 43.301 21.191-4.2227 5.8672-11.973 18.938-9.5703 33.18 1.6562 9.8477 7.7617 18.34 18.16 25.297-3.8633 7.4336-12.895 28.031-5.5039 45.984 4.7812 11.637 15.449 19.773 31.703 24.234 1.1289 4.5234 4.7344 14.938 15.113 22.449 7.6289 5.5234 17.23 8.3047 28.656 8.3047 4.2891 0 8.8516-0.41797 13.648-1.1953 20.602 16.586 44.43 25.371 69.035 25.371 24.883 0 48.922-8.957 69.648-25.852 5.5586 1.0664 10.773 1.6094 15.59 1.6094 11.016 0 20.066-2.7734 27.035-8.2969 10.168-8.0742 12.77-19.629 13.434-24.695 16.102-4.4766 26.676-12.598 31.43-24.16 7.3945-17.953-1.6367-38.543-5.5039-45.988 10.258-6.8828 15.887-15.141 16.75-24.578 1.2227-13.535-7.8125-25.598-13.141-31.445 18.887-0.52734 44.047-6.2031 47.953-21.305 0.003906-0.003906 0.003906-0.007812 0.007813-0.019531 0.015625-0.039063 0.023437-0.070313 0.03125-0.10938v-0.023438c0.007812-0.015624 0.015625-0.027343 0.019531-0.042968v-0.007813c0-0.003906 0-0.007812 0.007812-0.015625 0.10938-0.44922 0.1875-0.91016 0.26172-1.375v-0.003906l0.003907-0.003906 0.066406-0.53516h-0.003906l0.019531-0.10547v-0.007813c0.0625-0.53516 0.074219-1.0859 0.074219-1.6445 0.007812-0.13281 0.023437-0.25391 0.023437-0.38672v-0.015625l0.019531-0.003906h-0.019531zm-6.6641-8.0898c0 0.003907 0.003907 0.003907 0 0 0.38281 0.73828 0.69141 1.4531 0.97656 2.1602 0 0 0.003906 0 0.003906 0.003906v0.007812c0.085938 0.19531 0.15625 0.39453 0.22266 0.58594 0.019531 0.039062 0.027343 0.074218 0.042968 0.11328 0.20312 0.5625 0.38672 1.1289 0.53125 1.6719l0.14062 0.62891c0.097657 0.42578 0.17188 0.84766 0.22656 1.2656 0.039062 0.27344 0.070312 0.53906 0.09375 0.80859v0.007813c0.015625 0.20312 0.019531 0.42578 0.019531 0.67187-19.633-20.812-57.395-31.559-82.203-36.609l17.863-10.41c20.148 7.0664 52.711 20.867 62.082 39.094zm-324.11-79.988c8.2422-10.406 23.086-12.586 34.09-12.586 6.3594 0 10.953 0.76563 11 0.77344 1.8125 0.3125 3.5-0.90625 3.8125-2.6953 0.17187-0.97266 4.4414-23.848 28.078-27.965 2.0039-0.35156 3.9766-0.52734 5.8867-0.52734 18.918 0 27.078 17.152 27.414 17.879 0.60938 1.3438 2.0547 2.1172 3.5078 1.8945 1.4648-0.22656 2.5938-1.3984 2.7734-2.8711 0.10938-0.88672 2.8711-21.727 22.598-23.027 19.508-1.2852 24.762 22.324 24.961 23.305 0.28516 1.3398 1.3594 2.3672 2.7148 2.5859 1.3555 0.20312 2.7031-0.42969 3.3828-1.6133 0.097656-0.16406 9.5977-16.344 24.703-16.344 3.2344 0 6.5781 0.74219 9.9297 2.207 20.621 9.0039 14.391 28.727 14.121 29.551-0.3125 0.95312-0.1875 1.9883 0.35156 2.832 0.53516 0.84375 1.4297 1.3984 2.4258 1.5078 33.512 3.6523 35.461 33.602 35.414 41.203l-21.047 12.262c-0.76172 0.44141-1.3125 1.168-1.5352 2.0117-0.79688 3.0195-1.7773 5.7227-3.0156 8.2461-0.25 0.49609-0.50781 0.95312-0.76172 1.4062l-0.4375 0.80859c-1.4648 2.4688-3.1914 4.5117-5.1484 6.0859-3.2734 2.6328-7.3164 3.9648-12.016 3.9648-14.062 0-29.375-11.566-29.527-11.684-0.59766-0.44922-1.2969-0.67578-2.0117-0.67578-0.69922 0-1.4023 0.22266-1.9883 0.67188-8.7852 6.6484-16.816 10.02-23.855 10.02-18.441 0-25.516-23.91-25.582-24.148-0.33203-1.168-1.2773-2.0664-2.4609-2.3242-1.1875-0.26172-2.4258 0.14844-3.2109 1.0703-8.4336 9.7656-17.238 14.715-26.176 14.715-15.215 0-26.344-14.406-26.453-14.547-0.67188-0.89063-1.7578-1.3906-2.8594-1.3008-1.1172 0.074219-2.1172 0.71094-2.6602 1.6875-8.2578 14.824-19.672 17.934-27.793 17.934-5.0195 0-8.8984-1.168-10.062-1.5625l-32.922-24.723c-3.5391-15.793-2.0625-27.914 4.3594-36.027zm236.06 64.211c0.085937-0.14844 0.17578-0.30859 0.33984-0.62891 30.121 5.625 63.629 14.676 68.594 23.488 0.86328 1.5352 0.77344 2.832-0.26172 4.082-6 7.2539-40.117 9.1172-57.941 3.1602-1.4219-0.47266-2.6758-0.97266-3.75-1.4805l-7.8242-27.312c0.28516-0.4375 0.57812-0.85938 0.84375-1.3086zm-245.03-23.371 14.777 11.09c-23.688 5.0625-60.246 15.77-79.363 36.012 0-0.23047 0-0.46094 0.023438-0.69531 0.015624-0.19922 0.039062-0.40234 0.0625-0.60547 0.003906-0.050781 0.007812-0.097656 0.015624-0.15234 0.0625-0.46094 0.13672-0.92969 0.24609-1.4023v-0.007813c0.003906-0.019531 0.015625-0.050781 0.023438-0.097656 0.015625-0.082031 0.03125-0.15625 0.035156-0.17578l0.027344-0.15234s0.003906 0 0.003906-0.003906c0.15625-0.625 0.36328-1.2656 0.60547-1.9102l0.21484-0.55078v-0.003906c0.28125-0.71094 0.59375-1.4297 0.97656-2.1719h0.003906c9.4102-18.297 42.102-32.121 62.348-39.172zm-64.266 50.277c0-0.007813-0.003906-0.007813-0.007812-0.019532-0.015625-0.0625-0.023438-0.12891-0.039062-0.1875 18.762-21.312 57.555-32.273 81.426-37.219l9.8047 7.3594c-12.027 2.1836-65.031 12.445-72.051 24.945-1.3398 2.3789-1.1406 4.6875 0.56641 6.6758 4.3008 5 18.047 7.4102 32.246 7.4102 10.934 0 22.137-1.4297 29.488-4.2148 1.207-0.45313 2.1562-0.86719 2.9844-1.2852l0.42969-0.21875 8.9805-31.332 3.5938 2.6992-8 31.98c-1.3828 0.83203-4.9727 2.8086-11.156 5.1211-5.0117 1.8711-10.656 3.5547-16.773 5.0312-3.9258 0.94141-9.2578 1.4531-15.102 1.4531-0.28516 0-0.5625-0.003906-0.85156-0.003906-19.828-0.16797-42.531-5.9336-45.539-18.195zm91.473-27.883-8.4766 29.594c-0.66016 0.30859-1.4141 0.62891-2.3438 0.98047-17.301 6.5547-52.762 5.0195-59.281-2.5703-1.0977-1.2773-1.1992-2.5938-0.32031-4.1562 6.6055-11.762 61.363-22.195 70.422-23.848zm1.4492 196.09c-11.043-7.9453-12.977-20.195-12.992-20.312-0.1875-1.332-1.168-2.4141-2.4727-2.7461-15.23-3.7852-25.059-10.793-29.195-20.836-7.7617-18.793 6.4531-42.664 6.6016-42.906 0.45312-0.75 0.59375-1.6562 0.38281-2.5039-0.20703-0.84766-0.75-1.582-1.5-2.043-10.316-6.2148-16.285-13.758-17.75-22.434-2.4453-14.5 8.1172-28.051 10.258-30.617 0.30469-0.36328 0.51562-0.77734 0.64062-1.207 5.9844-0.03125 11.5-0.57812 15.629-1.5742 4.4453-1.0703 8.6445-2.2578 12.555-3.543-1.5312 9.707-2.2305 18.91-2.2305 29.418 0 50.73 19.215 97.926 51.699 127.91-13.09 1.2695-23.723-0.92188-31.625-6.6016zm41.367 6.3516c-34.336-28.34-54.832-76.059-54.832-127.66 0-11.176 0.80469-20.82 2.6133-31.266 0.042969-0.23828 0.058594-0.46875 0.046875-0.69141 7.1055-2.8359 10.344-5.043 10.488-5.1484 0.42969-0.30469 0.75-0.75781 0.875-1.2734l8.0234-32.086c2.2734 0.61719 5.9141 1.3633 10.344 1.3633 9.1055 0 21.578-3.1406 31.168-17.395 4.9023 5.0352 15.215 13.621 28.609 13.621 9.5586 0 18.762-4.3633 27.434-12.984 3.6055 8.3672 12.582 23.68 29.992 23.68 7.9531 0 16.652-3.3398 25.883-9.918 4.9961 3.418 18.316 11.59 31.504 11.59 4.8438 0 9.1953-1.1094 13-3.2812l6.3516 25.414c0.12891 0.51562 0.4375 0.97266 0.88281 1.2734 0.16406 0.10938 3.7305 2.5664 11.727 5.6367-0.042969 0.3125-0.050781 0.63281 0.003906 0.96094 1.9336 11.324 2.7578 20.449 2.7578 30.508 0 51.23-20.266 98.762-54.203 127.15-19.797 16.555-42.844 25.309-66.652 25.309-23.527 0-46.355-8.5781-66.016-24.801zm227.82-121.12c-0.73047 8.0078-6.207 15.141-16.262 21.203-0.75781 0.44922-1.293 1.1875-1.5078 2.043-0.20312 0.85156-0.074219 1.7539 0.37891 2.5039 0.15234 0.23828 14.363 24.105 6.6094 42.906-4.1445 10.039-13.965 17.051-29.199 20.844-1.4453 0.35938-2.4609 1.6367-2.4961 3.125 0 0.13672-0.47266 13.723-11.164 22.207-7.5195 5.9766-18.305 8.0469-32.086 6.2227 32.27-29.988 51.383-77.074 51.383-127.58 0-9.6719-0.73828-18.512-2.4297-29.051 3.5938 1.1445 7.4102 2.2109 11.426 3.1719 2.7227 0.64844 6.0938 1.1094 9.793 1.3594 0.17578 0.51562 0.47656 1.0039 0.91406 1.3906 0.16406 0.14062 16.039 14.379 14.641 29.652zm-11.387-35.258c-0.625-0.20703-1.2891-0.23047-1.918-0.0625-0.039063 0-0.074219 0-0.10938-0.003906-4.1992-0.1875-7.9766-0.66016-10.906-1.3633-5.5508-1.332-10.723-2.8516-15.387-4.5234-7.0508-2.5234-11.066-4.7344-12.547-5.625l-6.5586-26.246c1.2539-1.0898 2.4297-2.3203 3.5156-3.6836l7.6133 26.578 0.42969 0.21875c1.2734 0.64453 2.7344 1.2422 4.4766 1.8203 7.3633 2.457 17.797 3.7188 28 3.7188 14.301 0 28.125-2.4727 32.336-7.5664 1.6289-1.9648 1.7852-4.2344 0.48438-6.5625-6.5391-11.617-52.637-21.281-69.406-24.445 0.007812 0 0.007812-0.003907 0.007812-0.003907 1.2461-2.543 2.2656-5.2148 3.0977-8.1367l0.67578-0.39453c24.984 4.8828 65.41 15.859 84.801 37.906-0.019531 0.0625-0.027343 0.12891-0.042969 0.19531-0.003906 0.003906-0.003906 0.007813-0.003906 0.015625-3.2812 13.41-29.68 18.582-48.559 18.164z"/>
  <path d="m375.69 511.58c-25.977 0-30.148-22.309-30.191-22.531l2.8516-0.49609c0.14844 0.81641 3.8438 20.145 27.34 20.145 9.9102 0 17.527-3.3945 22.617-10.102 3.8047-5.0039 4.7031-9.9883 4.7188-10.043l2.8477 0.49609c-0.039063 0.22266-4.2188 22.531-30.184 22.531"/>
  <path d="m397.78 458.15c-3.7695-14.004-22.094-14.004-22.094-14.004s-18.324 0-22.094 14.004c-2.5508 9.5 11.848 26.18 22.094 26.18s24.641-16.68 22.094-26.18"/>
  <path d="m444.79 398.82c0 6.6289-3.9961 12.012-8.9219 12.012-4.9297 0-8.9219-5.3789-8.9219-12.012 0-6.6406 3.9922-12.02 8.9219-12.02 4.9297 0.003907 8.9219 5.3789 8.9219 12.02"/>
  <path d="m327.22 398.82c0 6.6289-3.9922 12.012-8.9219 12.012-4.9258 0-8.9219-5.3789-8.9219-12.012 0-6.6406 3.9961-12.02 8.9219-12.02 4.9297 0.003907 8.9219 5.3789 8.9219 12.02"/>
 </g>
</svg>
