<?xml version="1.0" encoding="UTF-8"?>
<svg width="752pt" height="752pt" version="1.1" viewBox="0 0 752 752" xmlns="http://www.w3.org/2000/svg">
 <g>
  <path d="m515 385c11.852-9.0078 18.848-23.004 18.945-37.887 0.23828-12.324-4.4258-24.234-12.969-33.117-8.543-8.8828-20.27-14.004-32.59-14.242h-4.7344-0.003907c0.16016-1.5742 0.23828-3.1523 0.23828-4.7344 0.24219-12.324-4.4219-24.234-12.969-33.117-8.543-8.8828-20.266-14.004-32.59-14.242-11.137 0.035156-21.859 4.2227-30.07 11.746-3.5312-13.949-13.477-25.395-26.793-30.836-13.32-5.4453-28.434-4.2383-40.723 3.2461-12.289 7.4844-20.293 20.359-21.566 34.691-6.8906-4.1406-14.785-6.3203-22.828-6.2969-12.32 0.23437-24.043 5.3594-32.59 14.242-8.543 8.8789-13.207 20.793-12.969 33.117 0.003906 3.9922 0.49609 7.9648 1.4688 11.84-9.8438 2.8516-18.484 8.8516-24.598 17.078-6.1133 8.2266-9.3672 18.23-9.2617 28.48 0 9.4727 6.3477 17.664 11.414 24.391l1.4219 1.8945-1.4219 1.8945c-5.3516 6.5312-11.508 15.008-11.508 24.242-0.027343 10.465 3.4102 20.641 9.7734 28.941 6.3672 8.3008 15.301 14.262 25.41 16.949-1.8281 5.1875-2.7578 10.648-2.7461 16.148-0.23828 12.324 4.4258 24.238 12.969 33.117 8.5469 8.8828 20.27 14.008 32.59 14.242 13.102-0.003906 25.539-5.7695 34.004-15.77 8.7812 10.227 21.715 15.938 35.188 15.531 13.473-0.40625 26.043-6.8789 34.191-17.613 8.4727 11.121 21.633 17.668 35.613 17.711 12.328-0.22656 24.059-5.3438 32.605-14.227 8.5469-8.8867 13.207-20.809 12.953-33.133 0.11328-3.2969-0.10547-6.5977-0.66406-9.8516 2.6719 0.5 5.3828 0.75391 8.1016 0.75781 12.32-0.23437 24.043-5.3594 32.59-14.238 8.543-8.8828 13.207-20.797 12.969-33.117-0.082031-14.855-7.043-28.828-18.852-37.84zm-26.852 79.324c-3.8516 0.007812-7.6836-0.56641-11.363-1.7031l-5.4453-1.7031 1.7539 5.4453-0.003906-0.003906c1.3789 4.2539 2.082 8.6953 2.082 13.168 0.19141 10.727-3.8789 21.094-11.316 28.824-7.4414 7.7305-17.641 12.199-28.367 12.422-13.5-0.0625-26.02-7.0547-33.152-18.516l-2.6523-3.9297-2.5117 3.9297h0.003906c-6.8086 11.125-18.75 18.086-31.785 18.523-13.035 0.44141-25.418-5.7031-32.953-16.344l-2.3672-3.2695-2.3672 3.2695h-0.003907c-7.2891 10.23-19.07 16.316-31.633 16.336-10.73-0.22266-20.93-4.6914-28.367-12.422-7.4414-7.7305-11.512-18.098-11.32-28.824-0.007812-5.918 1.2188-11.773 3.5977-17.191l1.5625-3.5039-3.7891-0.56641 0.003906-0.003906c-9.5391-1.7109-18.164-6.7461-24.344-14.207-6.1836-7.4648-9.5195-16.879-9.4258-26.566 0-7.293 5.4453-14.492 10.23-20.887l2.793-3.7422 1.2305-1.7031-1.2305-1.7031-2.6016-3.9805c-4.7344-6.3477-10.23-13.543-10.23-20.836-0.13672-9.4375 2.9922-18.629 8.8633-26.02 5.8711-7.3906 14.117-12.52 23.34-14.52l3.2695-0.61719-0.99609-3.1719c-1.3555-4.2422-2.043-8.668-2.0352-13.117-0.19141-10.73 3.8789-21.094 11.316-28.828 7.4414-7.7305 17.641-12.199 28.367-12.422 8.5781-0.027344 16.914 2.8242 23.68 8.0977l4.7344 3.5977v-5.8711c-0.36719-13.715 6.3906-26.648 17.863-34.176 11.473-7.5234 26.027-8.5742 38.461-2.7695 12.434 5.8047 20.977 17.633 22.574 31.262l0.94531 6.3945 4.2148-4.7344h0.003907c7.3828-8.6953 18.195-13.73 29.598-13.781 10.727 0.22266 20.93 4.6914 28.367 12.422 7.4414 7.7305 11.512 18.098 11.32 28.824-0.003906 2.6055-0.24219 5.207-0.71094 7.7695l-0.80469 4.2617 4.2617-0.85156c2.4492-0.48438 4.9414-0.72266 7.4336-0.71094 10.73 0.22266 20.93 4.6914 28.367 12.422 7.4414 7.7305 11.512 18.098 11.32 28.824 0.046875 14.449-7.3672 27.895-19.605 35.566l-4.1211 2.5117 4.1211 2.5117v-0.003907c12.246 7.668 19.66 21.121 19.605 35.566 0.19141 10.746-3.8945 21.125-11.352 28.859-7.4609 7.7344-17.684 12.191-28.43 12.391z"/>
  <path d="m457.03 326.23c-0.42578-0.046874-0.85547-0.046874-1.2773 0v-0.56641l-50.77 20.789c-18.57 7.6211-39.395 7.6211-57.965 0l-50.723-20.695v0.66406h-0.51953c-6.9141 0.75781-30.355 4.7344-42.195 22.684l-1.2305 1.8945 1.5156 1.6562c0.85156 0.94531 17.809 19.797 35.754 19.797 2.2695-0.074219 4.5195-0.47266 6.6758-1.1836v8.9961c-0.085937 21.242 8.2578 41.648 23.199 56.742 14.945 15.094 35.266 23.645 56.504 23.77 21.145-0.011719 41.418-8.4219 56.363-23.375 14.945-14.957 23.344-35.234 23.344-56.379v-9.7539c1.7812 0.42969 3.6094 0.64844 5.4453 0.66406 17.949 0 34.902-18.941 35.754-19.797l1.5156-1.6562-1.2305-1.8945c-10.895-16.578-31.73-21.172-40.16-22.355zm-162.01 39.449c-14.207 4.4531-30.121-10.23-35.188-15.297 10.086-13.402 27.988-17.051 35.188-17.996zm154.81 15.391v0.003906c-0.011719 19.57-7.7969 38.34-21.641 52.176-13.844 13.836-32.617 21.605-52.191 21.605-19.664-0.125-38.477-8.0391-52.316-22.012s-21.578-32.863-21.512-52.527v-45.797l42.621 17.379c20.008 8.2344 42.457 8.2344 62.465 0l42.621-17.379v46.504zm5.918-15.723v-33.152l0.003906 0.003906c0.10156-0.050781 0.22656-0.050781 0.32812 0 7.293 1.043 24.816 4.7344 34.715 17.949-4.9258 4.9258-21.121 19.559-35.043 15.152z"/>
  <path d="m344.13 384.62c0 5.3867-4.3672 9.7539-9.7539 9.7539-5.3906 0-9.7578-4.3672-9.7578-9.7539 0-5.3867 4.3672-9.7578 9.7578-9.7578 5.3867 0 9.7539 4.3711 9.7539 9.7578"/>
  <path d="m424.16 384.62c0 5.3867-4.3672 9.7539-9.7539 9.7539-5.3906 0-9.7578-4.3672-9.7578-9.7539 0-5.3867 4.3672-9.7578 9.7578-9.7578 5.3867 0 9.7539 4.3711 9.7539 9.7578"/>
  <path d="m394.95 430.13c-6.5117 1.1758-12.973-2.3008-15.582-8.3828 3.8828-0.89844 6.7266-3.3633 6.7266-6.3477 0-3.7422-4.3555-6.7734-9.7539-6.7734-5.4023 0.003906-9.8047 3.0312-9.8047 6.7734 0 3.7422 3.125 5.6836 7.293 6.4414-2.6094 6.082-9.0703 9.5586-15.582 8.3828-0.79688-0.14453-1.5625 0.38672-1.7031 1.1836-0.14453 0.79688 0.38281 1.5625 1.1836 1.707 1.0938 0.19141 2.2031 0.28516 3.3125 0.28125 3.3281-0.11719 6.5547-1.1797 9.3008-3.0547 2.75-1.8789 4.9102-4.4961 6.2344-7.5508 1.3281 3.0312 3.4844 5.6289 6.2266 7.4883 2.7383 1.8594 5.9492 2.9102 9.2578 3.0234 1.1133 0.003906 2.2227-0.09375 3.3164-0.28516 0.39062-0.058593 0.73828-0.27734 0.96875-0.59766 0.23047-0.32422 0.32031-0.72266 0.25-1.1133-0.070313-0.38672-0.29688-0.73047-0.62109-0.95312-0.32812-0.22266-0.73047-0.30078-1.1172-0.22266z"/>
 </g>
</svg>
