<?xml version="1.0" encoding="UTF-8"?>
<svg width="752pt" height="752pt" version="1.1" viewBox="0 0 752 752" xmlns="http://www.w3.org/2000/svg">
 <g>
  <rect width="752" height="752" fill="#fff"/>
  <path d="m314.6 154.26c-18.891-3.4297-32.434 5.918-32.168 25.312-4.5312 4.8281-7.832 10.301-9 15.988-6.5273 5.0508-13.746 11.973-19.184 20.871-63.297 18.645-107.3 81.973-85.875 145.36 9.1523 23.906 32.941 44.051 53.121 53.734-2.9922 10.289-0.64453 17.074 6.4922 23.094-1.6914 7.1094 0.0625 14.961 5.4609 21.613-0.56641 14.066 6.3867 24.41 17.559 30.789 8.0039 13.312 19.344 19.613 33.348 21.02 1.3086 2.4102 3.0156 4.5234 4.8711 6.3633-0.80469 10.449-0.48438 21.449-0.58984 32.121l-4.1328 2.2188c-6.7461 3.4023-9.6875 12.766-6.1094 19.434 3.5781 6.668 12.992 9.3594 19.535 5.582l11.363-6.2188c4.4805-2.3867 7.4844-7.3438 7.5234-12.434l0.44141-34.344c3.7031-0.58203 7.4414-1.5391 11.215-2.6641-0.80078 15.551-1.3047 31.523-1.918 47.219l-4.2773 2.3672c-6.7461 3.4023-9.6875 12.766-6.1094 19.434 3.5781 6.668 12.992 9.3594 19.535 5.582l11.363-6.2188c4.3555-2.3125 7.3281-7.0508 7.5234-11.988l1.918-49.293c11.121 5.8516 25.82 5.7773 36.004 2.5156 15.129 11.742 34.395 12.457 52.234 5.3281v18.504l-3.9844 2.0742c-6.75 3.3984-9.6953 12.766-6.1133 19.438s12.996 9.3594 19.543 5.5781l11.508-6.2148c4.4258-2.4258 7.3633-7.375 7.3789-12.434v-28.422c3.2031-1.0938 6.8008-2.7695 9.5898-4.1445l-0.14844 43.074-3.9844 2.0742c-6.75 3.3984-9.6953 12.766-6.1133 19.438s12.996 9.3594 19.543 5.5781l11.508-6.2188c4.4258-2.4258 7.3633-7.375 7.3789-12.434 0.72266-23.793 0.35156-44.66 0.054688-67.102 16.449 3.5234 27.133-6.1211 32.113-20.09 17.574-6.2227 24.887-19.297 25.676-35.969 19.82-14.992 22.367-36 19.184-56.695 3.832-18.348-1.293-35.109-14.02-46.332 1.8672-22.859-12.672-35.812-32.609-37.895-13.695-21.18-32.586-26.879-53.414-17.613-10.484-16.824-21.883-22.316-39.543-17.91-1.5703-9.0078-5.8828-15.625-10.18-20.281 4.4609-4.793 4.4844-10.656 3.6875-16.281 6.9258-14.785 2.8516-31.219-10.035-38.34-3.9727-7.7148-10.992-12.109-18.738-13.324-3.7852-13.621-14.594-21.805-27.148-24.129-7.1758-8.8359-16.008-14.27-26.707-13.914-13.922-10.559-30.027-10.75-44.562-2.8125zm32.461 17.32c2.2812 4.0039 7.7344 5.8281 11.953 3.9961 5.9297-0.48828 10.32 4.793 13.871 9.1758 1.668 2.4648 4.5547 4.0547 7.5234 4.1445 9.2734 1.3672 13.887 6.6328 15.051 14.211-1.1211 6.2695 5.6836 12.496 11.805 10.805 3.2734-0.80469 4.7305 0.59375 6.9336 1.9258-0.34375 5.3555 4.6953 10.414 10.035 10.066 4.3633 3.3594 2.1836 9.2305 0.58984 14.059-2.5352 2.9023-3.0312 7.4219-1.1797 10.805-1.2148 1.3516-5.7617 1.4102-6.6406 1.4805-2.75-1.4961-6.25-1.4961-9 0-7.7148-0.42188-16.551-3.6719-20.656-10.656-7-10.48-17.16-15.598-28.184-18.207-14.016-13.293-34.348-22.965-56.367-17.613-13.207-2.168-11.82-9.9297-5.3125-15.543 2.3438-2.0078 3.5977-5.2188 3.2461-8.2891-1.4062-11.145 4.3438-10.855 12.543-8.7344 2.8047 0.77344 5.957 0.15234 8.2617-1.6289 9.4141-4.6094 16.816-5.9961 25.527 0zm-67.578 43.371c5.0234 5.1367 12.41 8.4805 20.953 9.7695 1.4258 0.23047 2.8984 0.12891 4.2773-0.29297 15.973-5.25 31.07 2.0977 42.789 13.766 1.5391 1.5117 3.6094 2.4688 5.7539 2.6641 5.6719 1.4492 10.043 3.7773 14.609 7.1055-1.5469 3.7422-8.6641 13.117-6.9336 26.941 10.039 28.277 7.5508 35.98 4.5742 47.367-9.7266 8.625-12.109 22.176-7.9688 34.344-6.1289 8.9844-8.8242 17.18-8.1172 27.09-32.77 20.215-65.945 26.91-94.141 22.5-30.574-4.7812-55.465-22.242-69.203-50.922-17.582-52.973 20.293-106.89 76.137-121.83 2.582-0.67188 4.8438-2.4961 6.0508-4.8828 2.3594-4.8594 6.6484-9.5391 11.215-13.617zm-3.9844 11.547c-3.6875 3.6992-4.3906 8.918-1.625 11.695 2.7656 2.7734 7.9688 2.0703 11.656-1.6289s4.3906-8.918 1.625-11.695c-4.3398-3.2305-8.2422-1.0195-11.656 1.6289zm25.23 3.9961c-3.9102 0-7.082 4.2422-7.082 9.4727 0 5.2344 3.1719 9.4727 7.082 9.4727 3.9102 0 7.082-4.2422 7.082-9.4727 0-5.2305-3.1719-9.4727-7.082-9.4727zm79.68 31.531c9.2812 6.9531 22.055 10.82 32.168 7.8477 2.4961 0.72266 4.9375 1.0312 7.3789 1.0352-0.21094 3.6172 2.0547 6.3633 3.6875 8.5859 6.7109 7.5156 9.8438 15.426 6.6406 24.719-3.2422 3.2461-3.5781 8.9766-0.73828 12.582 1.8711 5.6797-2.0117 11.367-5.3125 15.988-1.875 2.2617-2.6094 5.4297-1.918 8.2891 1.0742 9.3711-2.7734 15.168-9.8867 18.207-6.3203 0.52734-10.57 8.7109-7.3789 14.211 4.7539 9.0742-7.6523 9.5117-7.6719 16.875 0.14453 5.6133-7.5625 9.9883-12.395 7.2539-2.2422-1.3164-5.0391-1.6484-7.5234-0.88672-5.082 1.6211-7.0117-2.8047-6.7891-3.6992 0.62891-2.4922 0.19141-5.2305-1.1797-7.4023-2.3086-3.6875-2.2461-5.1992-1.3281-8.5859 0.91797-3.3906 3.6758-8.3906 7.5234-14.508 1.7383-2.8125 1.8555-6.5586 0.29688-9.4727-3.9922-7.6094-2.7344-14.879 3.0977-18.207 2.2383-1.2422 3.9336-3.4336 4.5742-5.9219 3.0117-11.891 6.2656-27.465-4.4258-58.617-0.52344-2.9805 0.54297-5.8398 1.1797-8.2891zm-168.36 37.152c-2.2656 0.49219-3.957 2.8711-3.6875 5.1797 0.73828 7.4258 1.9336 13.52 4.2773 18.355 1.6133 3.3242 4.0078 6.0273 6.9336 7.8438-1.5703 5.3867-3.5781 12.188-3.9844 19.984-0.47266 9.0547 1.3984 19.32 9 27.531 1.6992 1.8242 4.8984 1.9297 6.7148 0.22266 1.8164-1.707 1.9219-4.9141 0.21875-6.7344-5.5312-5.9727-6.8828-12.949-6.4922-20.426 0.33984-6.5117 2.125-12.938 3.6875-18.355 3.5156-0.125 7.1367-1.0273 11.066-2.8125 5.7617-2.6133 12.184-6.8203 19.625-12.582 1.9727-1.5117 2.3945-4.6836 0.88672-6.6602-1.5078-1.9766-4.6719-2.3984-6.6406-0.88672-7.0977 5.4961-13.02 9.2695-17.707 11.398-4.6836 2.1289-7.9375 2.5469-9.8867 2.0742-1.9492-0.47266-3.332-1.5664-4.8711-4.7383-1.5391-3.1719-2.7188-8.2891-3.3945-15.098-0.85938-3.4766-2.8711-4.6406-5.7539-4.293zm263.09 17.469c2.0195 5.1211 9.043 7.4727 13.723 4.5898 18.277-12.211 30.75-2.4023 38.953 11.102 1.6758 2.793 4.8672 4.5977 8.1172 4.5898 15.121 0.046875 22.035 9.3008 19.184 21.316-0.96875 3.7539 0.64062 8.0352 3.8359 10.215 11.344 7.5859 14.422 15.992 10.328 32.418-0.30859 1.2539-0.35938 2.5742-0.14844 3.8477 4.7422 20.059-2.4375 33.141-15.344 42.93-2.3359 1.7969-3.7461 4.7461-3.6875 7.6953 0.59766 14.16-6 21.262-16.527 23.98-3.25 0.83984-5.9492 3.5508-6.7891 6.8086-3.3047 15.906-16.188 11.195-25.086 7.6953-4.1523-1.668-9.3906 0.12891-11.656 3.9961-9.4961 16.066-25.43 23.293-41.609 19.391-2.1445-0.57422-4.4883-0.35938-6.4922 0.59375-16.633 8.3438-29.824 8.2734-41.02-2.9609-2.7812-2.7969-7.3984-3.5469-10.918-1.7773-16.141 6.5781-30.406-1.9258-41.02-12.434-2.6016-2.5938-6.7773-3.4453-10.18-2.0742-11.883 3.7539-30.648 13.934-38.953 2.3672-1.0391-4.0312-4.9961-7.1055-9.1484-7.1055-11.961 0.29297-19.875-5.5742-24.641-14.211-0.96094-1.7383-2.4805-3.1602-4.2773-3.9961-7.4062-3.7148-10.141-9.0859-9.8867-15.84 1.0312-3.5-0.17578-7.5586-2.9492-9.918-5.1289-4.3516-2.2227-8.2617-2.3594-8.1406 6.4727-11.582-2.3477-12.629-6.6406-19.391 4.0312 1.0781 8.2109 1.8633 12.395 2.5156 31.867 4.9844 67.727-2.1836 102.4-22.352 4.1211 8.5234 13.836 14.043 24.641 12.434 14.941 5.7227 31.184-3 35.117-18.207 8.1523-5.6523 11.023-13.496 10.035-22.5 12.125-7.1133 17.32-19.617 16.379-32.418 6.4609-9.1953 9.4688-19.266 6.4922-29.457 1.7461-3.0859 2.7695-6.3867 3.2461-9.7695 13.355-5.7383 20.52 4.3242 24.492 14.062z"/>
 </g>
</svg>
